<svg width="134" height="29" viewBox="0 0 134 29" fill="none" xmlns="http://www.w3.org/2000/svg">
<path d="M127.544 18.9798C128.122 19.5836 128.542 20.0299 128.805 20.3187C129.093 20.5812 129.29 20.7781 129.395 20.9093C129.526 21.0406 129.618 21.1193 129.671 21.1456C129.723 21.1718 129.815 21.2506 129.946 21.3818C130.078 21.5131 130.288 21.7231 130.576 22.0119C130.865 22.2744 131.298 22.7075 131.876 23.3113C132.348 23.7839 132.729 24.3351 133.018 24.9652C133.333 25.569 133.307 26.2252 132.939 26.934C132.729 27.3016 132.493 27.5641 132.23 27.7216C131.968 27.8528 131.679 27.9053 131.364 27.8791C131.075 27.8528 130.76 27.761 130.419 27.6035C130.104 27.4459 129.789 27.2491 129.474 27.0128C128.87 26.5665 128.293 26.0546 127.741 25.4771C127.19 24.8733 126.744 24.4139 126.403 24.0989C126.166 23.8626 126.022 23.7051 125.969 23.6264C125.917 23.5738 125.864 23.5345 125.812 23.5082C125.759 23.4557 125.707 23.4032 125.654 23.3507C125.471 23.1669 125.274 22.9832 125.064 22.7994C124.854 22.6157 124.644 22.4188 124.434 22.2088V23.7445C124.434 24.0332 124.447 24.2433 124.473 24.3745C124.473 24.637 124.46 24.8339 124.434 24.9652C124.355 25.2539 124.316 25.5296 124.316 25.7921C124.289 25.9234 124.263 26.0546 124.237 26.1859C124.211 26.2909 124.171 26.409 124.119 26.5403C124.092 26.5928 124.066 26.6321 124.04 26.6584C124.04 26.6846 124.04 26.724 124.04 26.7765C124.014 26.829 123.987 26.8684 123.961 26.8947C123.961 26.9209 123.948 26.9603 123.922 27.0128C123.79 27.2753 123.58 27.5247 123.292 27.761C122.793 28.0497 122.176 28.1285 121.441 27.9972C121.047 27.9185 120.745 27.7741 120.535 27.5641C120.299 27.4066 120.142 27.1834 120.063 26.8947C120.01 26.7634 119.958 26.6321 119.905 26.5009C119.879 26.3434 119.84 26.199 119.787 26.0677C119.735 25.9365 119.708 25.8184 119.708 25.7133C119.708 25.5821 119.708 25.4771 119.708 25.3983V2.99267C119.708 2.83516 119.708 2.67765 119.708 2.52014C119.708 2.36263 119.722 2.20513 119.748 2.04762C119.774 1.89011 119.8 1.74572 119.827 1.61447C119.879 1.45696 119.932 1.31257 119.984 1.18132C120.089 0.918802 120.22 0.70879 120.378 0.551281C120.509 0.420024 120.64 0.328143 120.772 0.27564C120.929 0.196886 121.073 0.131257 121.205 0.0787535C121.336 0.0525023 121.48 0.0393767 121.638 0.0393767C121.822 0.0131256 121.992 0 122.15 0C122.517 0 122.885 0.105005 123.252 0.315016C123.594 0.55128 123.843 0.853172 124.001 1.22069C124.211 1.71947 124.316 2.20512 124.316 2.67765C124.342 2.94017 124.368 3.34707 124.394 3.89835C124.421 4.42338 124.434 4.81715 124.434 5.07967V5.23717C124.46 6.10347 124.473 6.9304 124.473 7.71794C124.473 8.50549 124.473 9.35866 124.473 10.2775C124.447 11.1963 124.434 12.0757 124.434 12.9157C124.434 13.7295 124.434 14.5433 124.434 15.3571V15.7903C124.644 15.5803 124.854 15.3834 125.064 15.1996C125.274 15.0159 125.471 14.819 125.654 14.609C125.759 14.5302 125.864 14.4383 125.969 14.3333L126.403 13.9002C126.744 13.5589 127.19 13.0995 127.741 12.522C128.293 11.9182 128.87 11.3932 129.474 10.9469C130.13 10.4743 130.76 10.1856 131.364 10.0806C131.994 9.97557 132.519 10.2906 132.939 11.0256C133.307 11.7344 133.333 12.4038 133.018 13.0339C132.729 13.6377 132.348 14.2021 131.876 14.7271C131.298 15.3309 130.865 15.7772 130.576 16.0659C130.288 16.3284 130.078 16.5253 129.946 16.6566C129.815 16.7616 129.723 16.8272 129.671 16.8535C129.618 16.8797 129.526 16.9585 129.395 17.0897C129.29 17.1947 129.093 17.3916 128.805 17.6804C128.542 17.9429 128.122 18.376 127.544 18.9798Z" fill="#D4760B"/>
<path d="M116.168 12.8764C116.378 13.2439 116.483 13.6377 116.483 14.0577C116.509 14.4777 116.417 14.8715 116.207 15.239C115.971 15.7115 115.63 16.0397 115.183 16.2234C114.763 16.3809 114.291 16.3941 113.766 16.2628C113.53 16.2103 113.32 16.1184 113.136 15.9872C112.952 15.8559 112.755 15.7246 112.545 15.5934C112.361 15.4359 112.138 15.2915 111.876 15.1602C111.639 15.029 111.324 14.9371 110.931 14.8846C110.537 14.8321 110.104 14.8321 109.631 14.8846C109.185 14.9371 108.778 15.0421 108.41 15.1996C107.833 15.4884 107.374 15.9347 107.032 16.5384C106.691 17.116 106.468 17.746 106.363 18.4286C106.258 19.0848 106.271 19.7543 106.402 20.4368C106.56 21.1193 106.849 21.6969 107.269 22.1694C107.584 22.5369 107.99 22.8388 108.489 23.0751C109.014 23.3113 109.513 23.4557 109.986 23.5082C110.432 23.5607 110.878 23.5607 111.324 23.5082C111.771 23.4295 112.204 23.3245 112.624 23.1932C112.939 23.0619 113.293 22.8913 113.687 22.6813C114.081 22.445 114.461 22.3006 114.829 22.2481C115.302 22.2481 115.669 22.3794 115.932 22.6419C116.194 22.8782 116.378 23.1801 116.483 23.5476C116.588 23.8889 116.601 24.2564 116.522 24.6502C116.47 25.0439 116.325 25.3852 116.089 25.674C115.774 26.0677 115.328 26.4484 114.75 26.8159C114.173 27.1572 113.621 27.4066 113.096 27.5641C112.466 27.7741 111.758 27.8922 110.97 27.9185C110.209 27.9447 109.487 27.9185 108.804 27.8397C108.489 27.7872 108.161 27.7216 107.82 27.6428C107.479 27.5641 107.15 27.4722 106.835 27.3672C105.68 26.9472 104.709 26.3565 103.921 25.5952C103.16 24.8077 102.57 23.9282 102.15 22.9569C101.756 21.9856 101.533 20.9487 101.48 19.8461C101.428 18.7436 101.559 17.6541 101.874 16.5778C102.163 15.554 102.517 14.6877 102.937 13.9789C103.383 13.2701 103.895 12.6926 104.473 12.2463C105.077 11.7738 105.746 11.4063 106.481 11.1438C107.216 10.855 108.03 10.6056 108.922 10.3956C109.841 10.2118 110.812 10.2118 111.836 10.3956C112.86 10.5794 113.779 10.9206 114.593 11.4194C115.223 11.7607 115.748 12.2463 116.168 12.8764Z" fill="#D4760B"/>
<path d="M98.0595 13.1126C98.0595 13.8477 98.0595 14.6746 98.0595 15.5934C98.0858 16.5122 98.0989 17.4704 98.0989 18.4679C98.0989 19.4392 98.0989 20.4105 98.0989 21.3818C98.0989 22.3269 98.0858 23.2063 98.0595 24.0201C98.0333 24.4139 97.9939 24.847 97.9414 25.3196C97.8889 25.7658 97.7839 26.1859 97.6264 26.5796C97.4688 26.9734 97.2195 27.3016 96.8782 27.5641C96.5632 27.8003 96.13 27.9053 95.5787 27.8791C94.7649 27.8266 94.1743 27.4722 93.8068 26.8159C93.4655 26.1596 93.2686 25.2408 93.2161 24.0595C93.2161 23.4557 93.203 22.76 93.1767 21.9725C93.1767 21.185 93.1636 20.3843 93.1373 19.5705C93.1373 18.7567 93.1373 17.9691 93.1373 17.2079C93.1373 16.4203 93.1373 15.7115 93.1373 15.0815C93.1373 14.714 93.1242 14.2677 93.098 13.7427C93.098 13.2176 93.1111 12.6795 93.1373 12.1282C93.1636 11.5769 93.2292 11.0519 93.3342 10.5531C93.4392 10.0281 93.6099 9.59492 93.8461 9.25365C94.0299 9.04364 94.2924 8.88613 94.6337 8.78113C94.975 8.64987 95.3293 8.58424 95.6969 8.58424C96.0906 8.58424 96.4582 8.64987 96.7994 8.78113C97.167 8.91238 97.4295 9.09614 97.587 9.33241C97.692 9.48992 97.7707 9.71305 97.8232 10.0018C97.8757 10.2906 97.9151 10.6187 97.9414 10.9863C97.9939 11.3275 98.0201 11.695 98.0201 12.0888C98.0464 12.4563 98.0595 12.7976 98.0595 13.1126ZM96.5632 5.15842C95.7494 5.36843 95.0668 5.28968 94.5155 4.92215C93.9905 4.52838 93.6624 3.95085 93.5311 3.18955C93.4261 2.63827 93.4655 2.15262 93.6493 1.7326C93.833 1.31257 94.1087 0.997555 94.4762 0.787542C94.8437 0.551279 95.2637 0.446272 95.7362 0.472524C96.2088 0.498775 96.6813 0.682535 97.1538 1.02381C97.6001 1.33882 97.9151 1.70634 98.0989 2.12637C98.3089 2.54639 98.3745 2.95329 98.2958 3.34706C98.2433 3.74084 98.0726 4.10836 97.7839 4.44963C97.4951 4.76464 97.0882 5.00091 96.5632 5.15842Z" fill="#D4760B"/>
<path d="M87.1142 2.63827C88.1117 3.55708 88.8468 4.65964 89.3193 5.94596C89.7918 7.20604 89.9756 8.46611 89.8706 9.72618C89.7656 10.9337 89.3849 12.0494 88.7286 13.0732C88.0724 14.0708 87.0748 14.8321 85.736 15.3571C84.6859 15.8034 83.649 16.1184 82.6252 16.3022C81.6014 16.4859 80.4725 16.6303 79.2387 16.7353C78.6874 16.7878 78.2149 16.8272 77.8211 16.8535C77.4536 16.8535 77.0205 16.8666 76.5217 16.8928C76.4167 16.8928 76.2329 16.8928 75.9704 16.8928C75.7341 16.8928 75.5635 16.906 75.4585 16.9322V25.0833C75.3797 25.5821 75.2747 26.094 75.1435 26.619C75.0385 27.1441 74.7366 27.5509 74.2378 27.8397C73.949 27.9972 73.5946 28.0891 73.1746 28.1154C72.7546 28.1416 72.374 28.1285 72.0327 28.076C71.6652 28.0235 71.3501 27.9316 71.0876 27.8003C70.8514 27.6428 70.6545 27.3803 70.497 27.0128C70.392 26.7765 70.287 26.514 70.182 26.2252C70.1032 25.9102 70.0638 25.5296 70.0638 25.0833V3.30769C70.0638 3.12393 70.0769 2.95329 70.1032 2.79578C70.1294 2.63827 70.1557 2.48076 70.182 2.32325C70.2345 2.192 70.2738 2.04761 70.3001 1.89011C70.3263 1.7326 70.3657 1.58821 70.4182 1.45696C70.4707 1.3257 70.5232 1.20757 70.5757 1.10256C70.6545 0.997555 70.7464 0.905675 70.8514 0.82692C70.9826 0.695662 71.1795 0.577531 71.442 0.472524C71.7308 0.367518 72.1508 0.315015 72.7021 0.315015H72.7809C73.5946 0.262513 74.5003 0.223136 75.4979 0.196885C76.4954 0.144381 77.3224 0.157507 77.9787 0.236262C78.3462 0.288764 78.6874 0.328141 79.0025 0.354394C79.3175 0.354394 79.6194 0.36752 79.9081 0.393771C80.2232 0.420022 80.5382 0.446273 80.8532 0.472524C81.1682 0.498776 81.4832 0.538153 81.7982 0.590657C82.0608 0.643159 82.297 0.682537 82.507 0.70879C82.7433 0.735041 82.9796 0.774417 83.2158 0.82692C83.4258 0.879424 83.649 0.931927 83.8852 0.984429C84.1478 1.03693 84.384 1.12881 84.594 1.26007C85.1453 1.41758 85.6047 1.61447 85.9722 1.85073C86.3397 2.08699 86.7204 2.34951 87.1142 2.63827ZM84.7515 9.13552C84.7778 8.50549 84.6465 7.9542 84.3578 7.48168C84.0952 7.00915 83.7146 6.61538 83.2158 6.30036C82.717 5.98534 82.1526 5.73595 81.5226 5.55219C80.8926 5.36843 80.2625 5.23717 79.6325 5.15842C79.475 5.15842 79.2518 5.15842 78.9631 5.15842C78.7006 5.13217 78.4118 5.11904 78.0968 5.11904C77.7818 5.09279 77.4799 5.07966 77.1911 5.07966C76.9286 5.05341 76.7186 5.04029 76.5611 5.04029C76.4298 5.01403 76.2723 5.00091 76.0885 5.00091C75.9048 5.00091 75.6948 5.00091 75.4585 5.00091C75.4848 5.81471 75.4979 6.60225 75.4979 7.36354C75.4979 8.09859 75.4979 8.89926 75.4979 9.76556C75.4716 10.2381 75.4585 10.7106 75.4585 11.1831C75.4585 11.6557 75.4585 12.1151 75.4585 12.5613L77.8999 12.522C78.5299 12.522 79.2256 12.4826 79.9869 12.4038C80.7482 12.3251 81.4701 12.1676 82.1526 11.9313C82.8352 11.695 83.4127 11.3538 83.8852 10.9075C84.384 10.4612 84.6728 9.87056 84.7515 9.13552Z" fill="#D4760B"/>
<path d="M66.6039 13.1126C66.6039 13.8477 66.6039 14.6746 66.6039 15.5934C66.6301 16.5122 66.6432 17.4704 66.6432 18.4679C66.6432 19.4392 66.6432 20.4105 66.6432 21.3818C66.6432 22.3269 66.6301 23.2063 66.6039 24.0201C66.5776 24.4139 66.5382 24.847 66.4857 25.3196C66.4332 25.7658 66.3282 26.1859 66.1707 26.5796C66.0132 26.9734 65.7638 27.3016 65.4225 27.5641C65.1075 27.8003 64.6744 27.9053 64.1231 27.8791C63.3093 27.8266 62.7186 27.4722 62.3511 26.8159C62.0098 26.1596 61.813 25.2408 61.7605 24.0595C61.7605 23.4557 61.7473 22.76 61.7211 21.9725C61.7211 21.185 61.7079 20.3843 61.6817 19.5705C61.6817 18.7567 61.6817 17.9691 61.6817 17.2079C61.6817 16.4203 61.6817 15.7115 61.6817 15.0815C61.6817 14.714 61.6686 14.2677 61.6423 13.7427C61.6423 13.2176 61.6554 12.6795 61.6817 12.1282C61.7079 11.5769 61.7736 11.0519 61.8786 10.5531C61.9836 10.0281 62.1542 9.59492 62.3905 9.25365C62.5742 9.04364 62.8368 8.88613 63.178 8.78113C63.5193 8.64987 63.8737 8.58424 64.2412 8.58424C64.635 8.58424 65.0025 8.64987 65.3438 8.78113C65.7113 8.91238 65.9738 9.09614 66.1313 9.33241C66.2363 9.48992 66.3151 9.71305 66.3676 10.0018C66.4201 10.2906 66.4595 10.6187 66.4857 10.9863C66.5382 11.3275 66.5645 11.695 66.5645 12.0888C66.5907 12.4563 66.6039 12.7976 66.6039 13.1126ZM65.1075 5.15842C64.2937 5.36843 63.6112 5.28968 63.0599 4.92215C62.5349 4.52838 62.2067 3.95085 62.0755 3.18955C61.9705 2.63827 62.0098 2.15262 62.1936 1.7326C62.3774 1.31257 62.653 0.997555 63.0205 0.787542C63.388 0.551279 63.8081 0.446272 64.2806 0.472524C64.7531 0.498775 65.2256 0.682535 65.6982 1.02381C66.1444 1.33882 66.4595 1.70634 66.6432 2.12637C66.8532 2.54639 66.9189 2.95329 66.8401 3.34706C66.7876 3.74084 66.617 4.10836 66.3282 4.44963C66.0394 4.76464 65.6326 5.00091 65.1075 5.15842Z" fill="#D4760B"/>
<path d="M58.1018 12.8764C58.3118 13.2439 58.4168 13.6377 58.4168 14.0577C58.443 14.4777 58.3511 14.8715 58.1411 15.239C57.9049 15.7115 57.5636 16.0397 57.1173 16.2234C56.6973 16.3809 56.2248 16.3941 55.6997 16.2628C55.4635 16.2103 55.2535 16.1184 55.0697 15.9872C54.8859 15.8559 54.6891 15.7246 54.479 15.5934C54.2953 15.4359 54.0721 15.2915 53.8096 15.1602C53.5734 15.029 53.2583 14.9371 52.8646 14.8846C52.4708 14.8321 52.0377 14.8321 51.5651 14.8846C51.1189 14.9371 50.712 15.0421 50.3444 15.1996C49.7669 15.4884 49.3075 15.9347 48.9662 16.5384C48.625 17.116 48.4018 17.746 48.2968 18.4286C48.1918 19.0848 48.2049 19.7543 48.3362 20.4368C48.4937 21.1193 48.7825 21.6969 49.2025 22.1694C49.5175 22.5369 49.9244 22.8388 50.4232 23.0751C50.9482 23.3113 51.447 23.4557 51.9195 23.5082C52.3658 23.5607 52.8121 23.5607 53.2583 23.5082C53.7046 23.4295 54.1378 23.3245 54.5578 23.1932C54.8728 23.0619 55.2272 22.8913 55.621 22.6813C56.0148 22.445 56.3954 22.3006 56.7629 22.2481C57.2355 22.2481 57.603 22.3794 57.8655 22.6419C58.128 22.8782 58.3118 23.1801 58.4168 23.5476C58.5218 23.8889 58.5349 24.2564 58.4561 24.6502C58.4036 25.0439 58.2593 25.3852 58.023 25.674C57.708 26.0677 57.2617 26.4484 56.6842 26.8159C56.1066 27.1572 55.5554 27.4066 55.0303 27.5641C54.4003 27.7741 53.6915 27.8922 52.904 27.9185C52.1427 27.9447 51.4207 27.9185 50.7382 27.8397C50.4232 27.7872 50.095 27.7216 49.7538 27.6428C49.4125 27.5641 49.0844 27.4722 48.7693 27.3672C47.6143 26.9472 46.643 26.3565 45.8554 25.5952C45.0941 24.8077 44.5035 23.9282 44.0835 22.9569C43.6897 21.9856 43.4665 20.9487 43.414 19.8461C43.3615 18.7436 43.4928 17.6541 43.8078 16.5778C44.0966 15.554 44.451 14.6877 44.871 13.9789C45.3173 13.2701 45.8292 12.6926 46.4067 12.2463C47.0105 11.7738 47.6799 11.4063 48.4149 11.1438C49.15 10.855 49.9638 10.6056 50.8563 10.3956C51.7751 10.2118 52.7464 10.2118 53.7703 10.3956C54.7941 10.5794 55.7129 10.9206 56.5267 11.4194C57.1567 11.7607 57.6817 12.2463 58.1018 12.8764Z" fill="#D4760B"/>
<path d="M37.1201 22.6419C37.4352 22.5632 37.7502 22.5107 38.0652 22.4844C38.4065 22.4582 38.7084 22.4975 38.9709 22.6025C39.2596 22.7075 39.4959 22.8913 39.6797 23.1538C39.8634 23.3901 39.9553 23.7314 39.9553 24.1776C39.9553 24.4926 39.8765 24.7945 39.719 25.0833C39.5615 25.3721 39.3646 25.6346 39.1284 25.8709C38.8921 26.1071 38.6296 26.3171 38.3408 26.5009C38.0521 26.6584 37.7764 26.7897 37.5139 26.8947C36.7526 27.2359 35.8732 27.4984 34.8756 27.6822C33.9043 27.866 32.8936 27.9316 31.8436 27.8791C30.426 27.8266 29.0609 27.5509 27.7483 27.0522C26.462 26.5271 25.4513 25.674 24.7163 24.4926C24.0338 23.3376 23.6269 22.0513 23.4956 20.6337C23.3643 19.2161 23.43 17.8773 23.6925 16.6172C23.9813 15.0946 24.4669 13.8608 25.1495 12.9157C25.8582 11.9444 26.6983 11.17 27.6696 10.5925C28.8509 9.90994 30.1766 9.55555 31.6467 9.52929C33.1168 9.50304 34.5212 9.79181 35.8601 10.3956C36.7526 10.7894 37.5533 11.3275 38.2621 12.0101C38.9709 12.6663 39.509 13.467 39.8765 14.4121C39.9815 14.6483 40.0603 14.9371 40.1128 15.2784C40.1916 15.6196 40.2441 15.9872 40.2703 16.3809C40.2966 16.7485 40.2966 17.116 40.2703 17.4835C40.2441 17.851 40.1784 18.1792 40.0734 18.4679C39.9159 18.9405 39.719 19.308 39.4828 19.5705C39.2465 19.833 38.9446 20.0299 38.5771 20.1612C38.2096 20.2924 37.7633 20.3843 37.2383 20.4368C36.7395 20.463 36.1357 20.4893 35.4269 20.5155C34.7969 20.5418 34.2062 20.5549 33.6549 20.5549C33.1037 20.5549 32.5392 20.5549 31.9617 20.5549C31.3842 20.5287 30.7804 20.5155 30.1504 20.5155C29.5466 20.4893 28.864 20.463 28.1027 20.4368C28.024 20.9618 28.0896 21.4212 28.2996 21.815C28.5359 22.1825 28.8509 22.4975 29.2447 22.76C29.6385 22.9963 30.0847 23.1801 30.5835 23.3113C31.0823 23.4426 31.5679 23.5213 32.0405 23.5476C32.933 23.6001 33.7862 23.5345 34.6 23.3507C35.4138 23.1407 36.2538 22.9044 37.1201 22.6419ZM35.4269 15.0027C34.9281 14.4252 34.4031 14.0052 33.8518 13.7427C33.4318 13.5589 32.9855 13.4801 32.513 13.5064C32.0667 13.5064 31.6336 13.572 31.2135 13.7033C30.4523 13.887 29.8091 14.2808 29.2841 14.8846C29.2316 14.9371 29.1397 15.0684 29.0084 15.2784C28.8772 15.4621 28.7459 15.659 28.6146 15.869C28.5096 16.079 28.4309 16.2759 28.3784 16.4597C28.3259 16.6435 28.3521 16.7353 28.4571 16.7353H36.1751C36.1488 16.3678 36.0832 16.0659 35.9782 15.8297C35.8732 15.5671 35.6894 15.2915 35.4269 15.0027Z" fill="#D4760B"/>
<path d="M20.3187 26.304C20.3449 26.5665 20.3187 26.8159 20.2399 27.0522C20.1874 27.2097 20.1087 27.3409 20.0036 27.4459C19.9249 27.5509 19.8199 27.656 19.6886 27.761C19.4524 27.9185 19.1636 28.0629 18.8223 28.1941C18.6123 28.2466 18.4023 28.286 18.1923 28.3122C18.0085 28.3647 17.8116 28.3647 17.6016 28.3122C17.1816 28.286 16.8141 28.1285 16.4991 27.8397C16.0528 27.4722 15.6853 27.0653 15.3965 26.619C15.2652 26.409 15.1209 26.1727 14.9634 25.9102C14.8058 25.6477 14.6615 25.3721 14.5302 25.0833L10.1593 16.7747C9.94932 16.7747 9.73931 16.7878 9.52929 16.8141C9.31928 16.8141 9.10927 16.8272 8.89926 16.8535C8.34798 16.906 7.82295 16.9191 7.32417 16.8928C6.85164 16.8666 6.35286 16.8666 5.82783 16.8928H5.07967V24.0201C5.07967 24.2301 5.06654 24.427 5.04029 24.6108C5.04029 24.7945 5.04029 24.9914 5.04029 25.2014C5.04029 25.3327 5.02716 25.5033 5.00091 25.7133C5.00091 25.9234 4.98779 26.1202 4.96153 26.304C4.90903 26.5928 4.7909 26.8947 4.60714 27.2097C4.42338 27.4984 4.17399 27.7478 3.85897 27.9578C3.30769 28.2991 2.63828 28.391 1.85073 28.2335C1.50946 28.1547 1.18132 28.0235 0.866299 27.8397C0.761293 27.761 0.669413 27.6691 0.590659 27.5641C0.511904 27.4328 0.446275 27.3016 0.393772 27.1703C0.341269 27.039 0.288766 26.9078 0.236264 26.7765C0.210012 26.619 0.170635 26.4746 0.118132 26.3434C0.0393772 26.0809 0 25.8315 0 25.5952V3.22893C0 3.07142 0 2.91392 0 2.75641C0.0262515 2.57265 0.0525029 2.41514 0.0787544 2.28388C0.105006 1.99511 0.196886 1.70635 0.354395 1.41758C0.43315 1.10256 0.564407 0.879424 0.748168 0.748167C0.905677 0.590657 1.14194 0.4594 1.45696 0.354395C1.79823 0.223138 2.28388 0.170634 2.91392 0.196886C4.09523 0.223137 5.26343 0.236262 6.41849 0.236262C7.57356 0.236262 8.72862 0.262513 9.88369 0.315016C10.645 0.36752 11.4457 0.4594 12.2857 0.590658C13.152 0.695664 13.9527 0.89255 14.6877 1.18132C15.1602 1.36508 15.5934 1.54884 15.9872 1.7326C16.4859 2.02136 16.8797 2.29701 17.1685 2.55952C18.0873 3.39957 18.7829 4.41025 19.2555 5.59157C19.728 6.77289 19.9643 7.96733 19.9643 9.1749C19.9643 10.5925 19.623 11.8919 18.9405 13.0732C18.2842 14.2546 17.221 15.134 15.7509 15.7115C15.6984 15.764 15.6196 15.8034 15.5146 15.8297C15.4359 15.8297 15.3703 15.8428 15.3178 15.869L18.9405 23.1538L19.2949 23.7839C19.3474 23.8889 19.413 24.007 19.4917 24.1383C19.5705 24.2695 19.6361 24.4008 19.6886 24.532C19.7674 24.6633 19.833 24.8077 19.8855 24.9652C19.9643 25.1227 20.043 25.2671 20.1218 25.3983C20.2005 25.7658 20.2662 26.0677 20.3187 26.304ZM10.4743 12.2857C10.9469 12.2857 11.3932 12.2069 11.8132 12.0494C12.2595 11.8657 12.6532 11.6294 12.9945 11.3406C13.362 11.0519 13.6639 10.7237 13.9002 10.3562C14.1364 9.96244 14.2677 9.54242 14.2939 9.09614C14.3989 7.78357 14.0577 6.81226 13.2701 6.18223C12.4826 5.52594 11.4457 5.17154 10.1593 5.11904C9.39804 5.06654 8.55799 5.04029 7.63919 5.04029C6.74664 5.04029 5.89346 5.04029 5.07967 5.04029C5.10592 6.1166 5.10592 7.21916 5.07967 8.34798C5.07967 9.45054 5.07967 10.7631 5.07967 12.2857H10.4743Z" fill="#D4760B"/>
</svg>
